<mxfile host="app.diagrams.net" modified="2023-12-29T03:11:21.731Z" agent="Mozilla/5.0 (Macintosh; Intel Mac OS X 10_15_7) AppleWebKit/537.36 (KHTML, like Gecko) Chrome/120.0.0.0 Safari/537.36" version="22.1.12" etag="Q_HJ8ZpKPuxD-DSrcJRf" type="github">
  <diagram name="Page-1" id="rgkmgf3-Z7QhlgcMF33-">
    <mxGraphModel>
      <root>
        <mxCell id="0" />
        <mxCell id="1" parent="0" />
      </root>
    </mxGraphModel>
  </diagram>
</mxfile>
